<svg width="28" height="39" viewBox="0 0 28 39" fill="none" xmlns="http://www.w3.org/2000/svg">
<path d="M14 2H8.16671C6.61961 2 5.13588 2.61458 4.04192 3.70854C2.94796 4.80251 2.33337 6.28624 2.33337 7.83333C2.33337 9.38043 2.94796 10.8642 4.04192 11.9581C5.13588 13.0521 6.61961 13.6667 8.16671 13.6667M14 2V13.6667M14 2H19.8334C20.5994 2 21.358 2.15088 22.0657 2.44404C22.7734 2.73719 23.4165 3.16687 23.9582 3.70854C24.4998 4.25022 24.9295 4.89328 25.2227 5.60101C25.5158 6.30875 25.6667 7.06729 25.6667 7.83333C25.6667 8.59938 25.5158 9.35792 25.2227 10.0657C24.9295 10.7734 24.4998 11.4164 23.9582 11.9581C23.4165 12.4998 22.7734 12.9295 22.0657 13.2226C21.358 13.5158 20.5994 13.6667 19.8334 13.6667M14 13.6667H8.16671M14 13.6667H19.8334M14 13.6667V25.3333M8.16671 13.6667C6.61961 13.6667 5.13588 14.2812 4.04192 15.3752C2.94796 16.4692 2.33337 17.9529 2.33337 19.5C2.33337 21.0471 2.94796 22.5308 4.04192 23.6248C5.13588 24.7188 6.61961 25.3333 8.16671 25.3333M19.8334 13.6667C19.0673 13.6667 18.3088 13.8175 17.6011 14.1107C16.8933 14.4039 16.2503 14.8335 15.7086 15.3752C15.1669 15.9169 14.7372 16.5599 14.4441 17.2677C14.1509 17.9754 14 18.734 14 19.5C14 20.266 14.1509 21.0246 14.4441 21.7323C14.7372 22.4401 15.1669 23.0831 15.7086 23.6248C16.2503 24.1665 16.8933 24.5961 17.6011 24.8893C18.3088 25.1824 19.0673 25.3333 19.8334 25.3333C20.5994 25.3333 21.358 25.1824 22.0657 24.8893C22.7734 24.5961 23.4165 24.1665 23.9582 23.6248C24.4998 23.0831 24.9295 22.4401 25.2227 21.7323C25.5158 21.0246 25.6667 20.266 25.6667 19.5C25.6667 18.734 25.5158 17.9754 25.2227 17.2677C24.9295 16.5599 24.4998 15.9169 23.9582 15.3752C23.4165 14.8335 22.7734 14.4039 22.0657 14.1107C21.358 13.8175 20.5994 13.6667 19.8334 13.6667ZM8.16671 25.3333C6.61961 25.3333 5.13588 25.9479 4.04192 27.0419C2.94796 28.1358 2.33337 29.6196 2.33337 31.1667C2.33337 32.7138 2.94796 34.1975 4.04192 35.2915C5.13588 36.3854 6.61961 37 8.16671 37C9.7138 37 11.1975 36.3854 12.2915 35.2915C13.3855 34.1975 14 32.7138 14 31.1667V25.3333M8.16671 25.3333H14" stroke="#1E1E1E" stroke-width="3.5" stroke-linecap="round" stroke-linejoin="round"/>
</svg>
