<svg width="28" height="39" viewBox="0 0 28 39" fill="none" xmlns="http://www.w3.org/2000/svg">
<path d="M13.6667 2H7.83333C6.28624 2 4.80251 2.61458 3.70854 3.70854C2.61458 4.80251 2 6.28624 2 7.83333C2 9.38043 2.61458 10.8642 3.70854 11.9581C4.80251 13.0521 6.28624 13.6667 7.83333 13.6667M13.6667 2V13.6667M13.6667 2H19.5C20.266 2 21.0246 2.15088 21.7323 2.44404C22.4401 2.73719 23.0831 3.16687 23.6248 3.70854C24.1665 4.25022 24.5961 4.89328 24.8893 5.60101C25.1824 6.30875 25.3333 7.06729 25.3333 7.83333C25.3333 8.59938 25.1824 9.35792 24.8893 10.0657C24.5961 10.7734 24.1665 11.4164 23.6248 11.9581C23.0831 12.4998 22.4401 12.9295 21.7323 13.2226C21.0246 13.5158 20.266 13.6667 19.5 13.6667M13.6667 13.6667H7.83333M13.6667 13.6667H19.5M13.6667 13.6667V25.3333M7.83333 13.6667C6.28624 13.6667 4.80251 14.2812 3.70854 15.3752C2.61458 16.4692 2 17.9529 2 19.5C2 21.0471 2.61458 22.5308 3.70854 23.6248C4.80251 24.7188 6.28624 25.3333 7.83333 25.3333M19.5 13.6667C18.734 13.6667 17.9754 13.8175 17.2677 14.1107C16.5599 14.4039 15.9169 14.8335 15.3752 15.3752C14.8335 15.9169 14.4039 16.5599 14.1107 17.2677C13.8175 17.9754 13.6667 18.734 13.6667 19.5C13.6667 20.266 13.8175 21.0246 14.1107 21.7323C14.4039 22.4401 14.8335 23.0831 15.3752 23.6248C15.9169 24.1665 16.5599 24.5961 17.2677 24.8893C17.9754 25.1824 18.734 25.3333 19.5 25.3333C20.266 25.3333 21.0246 25.1824 21.7323 24.8893C22.4401 24.5961 23.0831 24.1665 23.6248 23.6248C24.1665 23.0831 24.5961 22.4401 24.8893 21.7323C25.1824 21.0246 25.3333 20.266 25.3333 19.5C25.3333 18.734 25.1824 17.9754 24.8893 17.2677C24.5961 16.5599 24.1665 15.9169 23.6248 15.3752C23.0831 14.8335 22.4401 14.4039 21.7323 14.1107C21.0246 13.8175 20.266 13.6667 19.5 13.6667ZM7.83333 25.3333C6.28624 25.3333 4.80251 25.9479 3.70854 27.0419C2.61458 28.1358 2 29.6196 2 31.1667C2 32.7138 2.61458 34.1975 3.70854 35.2915C4.80251 36.3854 6.28624 37 7.83333 37C9.38043 37 10.8642 36.3854 11.9581 35.2915C13.0521 34.1975 13.6667 32.7138 13.6667 31.1667V25.3333M7.83333 25.3333H13.6667" stroke="#1E1E1E" stroke-width="3.5" stroke-linecap="round" stroke-linejoin="round"/>
</svg>
