<svg width="20" height="20" viewBox="0 0 20 20" fill="none" xmlns="http://www.w3.org/2000/svg">
<path fill-rule="evenodd" clip-rule="evenodd" d="M1.5625 5C1.5625 4.48223 1.98223 4.0625 2.5 4.0625H17.5C18.0178 4.0625 18.4375 4.48223 18.4375 5C18.4375 5.51777 18.0178 5.9375 17.5 5.9375H2.5C1.98223 5.9375 1.5625 5.51777 1.5625 5ZM1.5625 10C1.5625 9.48223 1.98223 9.0625 2.5 9.0625H17.5C18.0178 9.0625 18.4375 9.48223 18.4375 10C18.4375 10.5178 18.0178 10.9375 17.5 10.9375H2.5C1.98223 10.9375 1.5625 10.5178 1.5625 10ZM1.5625 15C1.5625 14.4822 1.98223 14.0625 2.5 14.0625H17.5C18.0178 14.0625 18.4375 14.4822 18.4375 15C18.4375 15.5178 18.0178 15.9375 17.5 15.9375H2.5C1.98223 15.9375 1.5625 15.5178 1.5625 15Z" fill="#1E1E1E"/>
</svg>
